# xmcd CD database file
#
# Track frame offsets:
#	150
#	15502
#	27762
#	40200
#	56948
#	66723
#	82530
#	93700
#	95670
#	116257
#	129385
#	132810
#	144411
#	151231
#	159263
#	174561
#	190926
#	201301
#	211468
#	222805
#	234861
#	245373
#	259344
#	275537
#	291163
#	304728
#	318702
#	328127
#
# Disc length: 4567 seconds
#
# Revision: 4
# Processed by: cddbd v1.5.2PL0 Copyright (c) Steve Scherf et al.
# Submitted via: CDex 1.86
#
DISCID=9811d51c
DTITLE=V/A - Next Stop Is Vietnam 1/13
DYEAR=2010
DGENRE=Blues
TTITLE0=Kingston Trio - Where Have All The Flowers Gone
TTITLE1=The Shirelles - Soldier Boy
TTITLE2=Marvin Gaye - Soldier's Plea
TTITLE3=Joe Medwick - Letter To A Buddie
TTITLE4=Rod McKuen - Soldiers Who Want To Be Heroes
TTITLE5=Peter, Paul and Mary - The Cruel War
TTITLE6=Dolf Droge - The Infiltration Blues
TTITLE7=President Eisenhower warns of a ''military industrial complex'' (January 17, 1961)
TTITLE8=Bob Dylan - Masters Of War
TTITLE9=Jim Reeves - Distant Drums
TTITLE10=Senator Wayne Morse: ''We're at war in violation of the Constitution...'' (August 2, 1964)
TTITLE11=Morty Gunty - There's A War
TTITLE12=President Johnson reports attacks in the Gulf of Tonkin and requests a Congressional resolution (August 4, 1964)
TTITLE13=Tom Paxton - What Did You Learn In School Today
TTITLE14=Bob Necaise and 'Lil' Gary D With The Delta Sho-Men - Mr. Where Is Viet-Nam
TTITLE15=Phil Ochs - Talking Vietnam
TTITLE16=Sandy and Sue (The Powell Sisters) - Our Daddy's In Vietnam
TTITLE17=Pete Seeger - The Willing Conscript
TTITLE18=Tommy Dee - Goodbye High School (Hello Viet Nam)
TTITLE19=Janie Hemphill With The Tynsions - Teenage Soldier Boy
TTITLE20=Buffy Sainte Marie - Universal Soldier
TTITLE21=Jan Berry - The Universal Coward
TTITLE22=Barry McGuire - Eve Of Destruction
TTITLE23=The Spokesmen - The Dawn Of Correction
TTITLE24=The Teachers - We Ain't At War
TTITLE25=Tom Paxton - Lyndon Johnson Told The Nation
TTITLE26=Simon and Garfunkel - 7 O'clock News - Silent Night
TTITLE27=Private Charles Bowens and The Gentlemen From Tigerland - Christmas In Viet Nam
EXTD=YEAR: 2010
EXTT0=
EXTT1=
EXTT2=
EXTT3=
EXTT4=
EXTT5=
EXTT6=
EXTT7=
EXTT8=
EXTT9=
EXTT10=
EXTT11=
EXTT12=
EXTT13=
EXTT14=
EXTT15=
EXTT16=
EXTT17=
EXTT18=
EXTT19=
EXTT20=
EXTT21=
EXTT22=
EXTT23=
EXTT24=
EXTT25=
EXTT26=
EXTT27=
PLAYORDER=
